<svg width="30" height="30" viewBox="0 0 30 30" fill="none" xmlns="http://www.w3.org/2000/svg">
<rect width="30" height="30" rx="8" fill="#B2FF83"/>
<g clip-path="url(#clip0_369_6)">
<path d="M23.55 22.1875H6.44996C6.20133 22.1875 5.99996 22.4462 5.99996 22.7656V23.9219C5.99996 24.2413 6.20133 24.5 6.44996 24.5H23.55C23.7986 24.5 24 24.2413 24 23.9219V22.7656C24 22.4462 23.7986 22.1875 23.55 22.1875ZM8.26543 18.3311C8.44205 18.5782 8.69011 18.7184 8.94971 18.718L12.6211 18.7115C12.9109 18.711 13.1965 18.6229 13.4548 18.4543L21.638 13.1193C22.3901 12.6289 23.0642 11.929 23.523 11.0124C24.0379 9.9833 24.0939 9.2386 23.8906 8.71251C23.6878 8.18605 23.1947 7.79943 22.2523 7.72066C21.4127 7.65056 20.5777 7.93457 19.8256 8.42453L17.0551 10.2308L10.9041 7.26575C10.8302 7.20174 10.7442 7.16428 10.6552 7.15723C10.5662 7.15017 10.4774 7.17379 10.3979 7.22564L8.54865 8.43139C8.24855 8.62687 8.17599 9.1414 8.40324 9.46226L12.7969 13.0069L9.89415 14.8995L7.8593 13.5818C7.7892 13.5364 7.71176 13.5128 7.63325 13.5129C7.55474 13.513 7.47735 13.5369 7.40733 13.5825L6.27868 14.3185C5.98505 14.51 5.90771 15.0094 6.12202 15.3331L8.26543 18.3311Z" fill="black"/>
</g>
<defs>
<clipPath id="clip0_369_6">
<rect width="18" height="18.5" fill="white" transform="translate(6 6)"/>
</clipPath>
</defs>
</svg>
